<svg xmlns="http://www.w3.org/2000/svg" width="96" height="96">
  <path d="M28.447 68.5L9 49h39v19.5c0 10.724-.03 19.5-.05 19.5-.03 0-8.802-8.776-19.5-19.5z" fill="#454ece"/>
  <path d="M50.003 68.506V49l.785.77c.43.423 8.42 8.443 17.755 17.816 9.335 9.37 17.757 17.79 18.716 18.735L89 88H50V68.506z" fill="#45c0f6"/>
  <path d="M28.45 28.498C39.14 17.775 47.92 9 47.95 9c.03 0 .05 8.775.05 19.498V48H9l19.45-19.502z" fill="#99d9ea"/>
  <path d="M49 9v38.482L88 88V49.518z" fill="#fff" />
  <path d="M48.646 46.737L88.2 88.197M7.8 48.004H48m0-40.2v80.39M7.8 48.006L48 7.806l40.2 40.2v40.19H48z" fill="none" stroke="#000" stroke-width="5" stroke-linejoin="round"/>
</svg>